<svg xmlns="http://www.w3.org/2000/svg" viewBox="0 0 135 40"><defs><style>.cls-1{fill:#a6a5a5;}.cls-2{fill:#fff;}</style></defs><title>Asset 3</title><g id="Layer_2" data-name="Layer 2"><g id="Layer_1-2" data-name="Layer 1"><path class="cls-1" d="M130.2,40H4.7A4.69,4.69,0,0,1,0,35.3V4.7A4.69,4.69,0,0,1,4.7,0H130.2A4.78,4.78,0,0,1,135,4.7V35.2a4.8,4.8,0,0,1-4.8,4.8Z"/><path d="M134,35.3a3.8,3.8,0,0,1-3.8,3.8H4.7A3.8,3.8,0,0,1,.9,35.3V4.7A3.8,3.8,0,0,1,4.7.9H130.2A3.8,3.8,0,0,1,134,4.7V35.3Z"/><path class="cls-2" d="M30.1,19.8a5.87,5.87,0,0,1,2.8-4.9,5.87,5.87,0,0,0-4.7-2.5c-2-.2-3.9,1.2-4.9,1.2s-2.6-1.2-4.2-1.1a6.2,6.2,0,0,0-5.2,3.2c-2.3,3.9-.6,9.7,1.6,12.9,1.1,1.6,2.4,3.3,4,3.2s2.2-1,4.2-1,2.5,1,4.2,1,2.8-1.6,3.9-3.1a11.46,11.46,0,0,0,1.8-3.6C33.5,24.9,30.2,23.6,30.1,19.8Z"/><path class="cls-2" d="M26.9,10.3a5.49,5.49,0,0,0,1.3-4.1,6.58,6.58,0,0,0-3.8,1.9A5.29,5.29,0,0,0,23.1,12,4.3,4.3,0,0,0,26.9,10.3Z"/><path class="cls-2" d="M53.6,31.5H51.3l-1.2-3.9H45.8l-1.2,3.9H42.4l4.3-13.3h2.6ZM49.8,26l-1.1-3.5c-.1-.4-.3-1.2-.7-2.5h0c-.1.6-.3,1.4-.6,2.5L46.2,26Z"/><path class="cls-2" d="M64.7,26.6a5.58,5.58,0,0,1-1.3,3.9,4.11,4.11,0,0,1-2.9,1.3,2.85,2.85,0,0,1-2.7-1.4h0v5.1H55.7V25.1c0-1,0-2.1-.1-3.2h1.9l.1,1.5h0a3.61,3.61,0,0,1,3.2-1.7A3.41,3.41,0,0,1,63.6,23,5.72,5.72,0,0,1,64.7,26.6Zm-2.2.1a4.14,4.14,0,0,0-.6-2.3,2.32,2.32,0,0,0-1.9-.9,2.39,2.39,0,0,0-1.4.5,2.48,2.48,0,0,0-.8,1.4,1.76,1.76,0,0,0-.1.6v1.6a2.79,2.79,0,0,0,.6,1.8,2.06,2.06,0,0,0,1.7.7,2.32,2.32,0,0,0,1.9-.9A4.87,4.87,0,0,0,62.5,26.7Z"/><path class="cls-2" d="M75.7,26.6a5.58,5.58,0,0,1-1.3,3.9,4.11,4.11,0,0,1-2.9,1.3,2.85,2.85,0,0,1-2.7-1.4h0v5.1H66.7V25.1c0-1,0-2.1-.1-3.2h1.9l.1,1.5h0a3.61,3.61,0,0,1,3.2-1.7A3.41,3.41,0,0,1,74.6,23,5.72,5.72,0,0,1,75.7,26.6Zm-2.2.1a4.14,4.14,0,0,0-.6-2.3,2.32,2.32,0,0,0-1.9-.9,2.39,2.39,0,0,0-1.4.5,2.48,2.48,0,0,0-.8,1.4,1.76,1.76,0,0,0-.1.6v1.6a2.79,2.79,0,0,0,.6,1.8,2.06,2.06,0,0,0,1.7.7,2.32,2.32,0,0,0,1.9-.9A4.87,4.87,0,0,0,73.5,26.7Z"/><path class="cls-2" d="M88,27.8a3.63,3.63,0,0,1-1.2,2.8,5.22,5.22,0,0,1-3.6,1.2,6.57,6.57,0,0,1-3.4-.8l.5-1.8a5.61,5.61,0,0,0,3.1.9,3.56,3.56,0,0,0,1.9-.5,2,2,0,0,0,.7-1.5,2,2,0,0,0-.6-1.4,5,5,0,0,0-1.8-1c-2.3-.9-3.5-2.1-3.5-3.8a3.42,3.42,0,0,1,1.2-2.7,4.83,4.83,0,0,1,3.3-1,6.68,6.68,0,0,1,3,.6L87,20.4a5.42,5.42,0,0,0-2.5-.6,2.61,2.61,0,0,0-1.8.6,1.35,1.35,0,0,0-.5,1.2,1.61,1.61,0,0,0,.6,1.3,6.49,6.49,0,0,0,1.9,1,7.19,7.19,0,0,1,2.5,1.6A3.09,3.09,0,0,1,88,27.8Z"/><path class="cls-2" d="M95.1,23.5H92.8v4.7Q92.8,30,94,30a2.22,2.22,0,0,0,.9-.1l.1,1.6a4.16,4.16,0,0,1-1.7.2,2.79,2.79,0,0,1-2-.8,3.68,3.68,0,0,1-.7-2.6V23.5H89.2V21.9h1.4V20.1l2.1-.6v2.4H95A8.6,8.6,0,0,1,95.1,23.5Z"/><path class="cls-2" d="M105.7,26.6a4.84,4.84,0,0,1-1.3,3.6,4.54,4.54,0,0,1-3.5,1.5,4.6,4.6,0,0,1-3.4-1.4,4.75,4.75,0,0,1-1.3-3.5,5.24,5.24,0,0,1,1.3-3.7,4.67,4.67,0,0,1,3.5-1.4,4.6,4.6,0,0,1,3.4,1.4A4.75,4.75,0,0,1,105.7,26.6Zm-2.2.1a4.38,4.38,0,0,0-.6-2.3,2,2,0,0,0-1.9-1.1,2.31,2.31,0,0,0-2,1.1,4.14,4.14,0,0,0-.6,2.3A4.38,4.38,0,0,0,99,29a2.15,2.15,0,0,0,3.8-.1A3.23,3.23,0,0,0,103.5,26.7Z"/><path class="cls-2" d="M112.6,23.8c-.2,0-.4-.1-.7-.1a1.85,1.85,0,0,0-1.7.9,2.85,2.85,0,0,0-.5,1.9v5h-2.1V24.9a28.12,28.12,0,0,0-.1-3h1.9l.1,1.8h.1a3.27,3.27,0,0,1,1.1-1.5,3,3,0,0,1,1.5-.5h.5A15.48,15.48,0,0,0,112.6,23.8Z"/><path class="cls-2" d="M122.2,26.3a3.08,3.08,0,0,1-.1,1h-6.4a2.79,2.79,0,0,0,.9,2.2,3.3,3.3,0,0,0,2.1.7,7.51,7.51,0,0,0,2.6-.5l.3,1.5a7.94,7.94,0,0,1-3.2.6,4.46,4.46,0,0,1-3.5-1.3,5,5,0,0,1-1.3-3.5,5.4,5.4,0,0,1,1.2-3.6,4.06,4.06,0,0,1,3.4-1.5,3.5,3.5,0,0,1,3.1,1.5A4.2,4.2,0,0,1,122.2,26.3Zm-2.1-.6a2.73,2.73,0,0,0-.4-1.6,1.85,1.85,0,0,0-1.7-.9,2,2,0,0,0-1.7.9,2.52,2.52,0,0,0-.6,1.7l4.4-.1Z"/><path class="cls-2" d="M49,10a3.39,3.39,0,0,1-1.1,2.7,4.65,4.65,0,0,1-2.8.8,6.62,6.62,0,0,1-1.5-.1V7a10.87,10.87,0,0,1,1.8-.1,4,4,0,0,1,2.6.7A3,3,0,0,1,49,10Zm-1.1,0a2.61,2.61,0,0,0-.6-1.8,2.44,2.44,0,0,0-1.8-.6,2,2,0,0,0-.8.1v4.9h.7a2.49,2.49,0,0,0,1.9-.7A2.31,2.31,0,0,0,47.9,10Z"/><path class="cls-2" d="M54.9,11a2.79,2.79,0,0,1-.6,1.8,2.06,2.06,0,0,1-1.7.7,2.19,2.19,0,0,1-1.7-.7,2.52,2.52,0,0,1-.6-1.7,2.79,2.79,0,0,1,.6-1.8,2.06,2.06,0,0,1,1.7-.7,2.19,2.19,0,0,1,1.7.7A2.52,2.52,0,0,1,54.9,11Zm-1.1.1a2,2,0,0,0-.3-1.1,1,1,0,0,0-.9-.6,1.22,1.22,0,0,0-1,.6,2.17,2.17,0,0,0,0,2.2,1,1,0,0,0,1,.6,1,1,0,0,0,.9-.6A2,2,0,0,0,53.8,11.1Z"/><path class="cls-2" d="M62.8,8.7l-1.5,4.7h-1l-.6-2a8.33,8.33,0,0,1-.4-1.5h0a8.33,8.33,0,0,1-.4,1.5l-.6,2h-1L55.9,8.7H57l.5,2.2.3,1.5h0c.1-.4.2-.9.4-1.5l.7-2.3h.9l.6,2.2a9.36,9.36,0,0,1,.4,1.6h0c.1-.5.2-1,.3-1.6l.6-2.2,1.1.1Z"/><path class="cls-2" d="M68.2,13.4h-1V10.7q0-1.2-.9-1.2a1,1,0,0,0-1.1,1.1v2.8h-1V8.7H65v.7h0a2.65,2.65,0,0,1,.5-.6,1.61,1.61,0,0,1,.9-.3,1.5,1.5,0,0,1,1.1.4,1.94,1.94,0,0,1,.5,1.6v2.9Z"/><path class="cls-2" d="M71.1,13.4h-1V6.6h1Z"/><path class="cls-2" d="M77.3,11a2.79,2.79,0,0,1-.6,1.8,2.06,2.06,0,0,1-1.7.7,2.19,2.19,0,0,1-1.7-.7,2.52,2.52,0,0,1-.6-1.7,2.79,2.79,0,0,1,.6-1.8A2.06,2.06,0,0,1,75,8.6a2.19,2.19,0,0,1,1.7.7A2.52,2.52,0,0,1,77.3,11Zm-1.1.1a2,2,0,0,0-.3-1.1,1,1,0,0,0-.9-.6,1.22,1.22,0,0,0-1,.6,2.17,2.17,0,0,0,0,2.2,1,1,0,0,0,1,.6,1,1,0,0,0,.9-.6A2,2,0,0,0,76.2,11.1Z"/><path class="cls-2" d="M82.3,13.4h-.9l-.1-.5h0a1.68,1.68,0,0,1-1.4.6,1.5,1.5,0,0,1-1.1-.4,1.78,1.78,0,0,1-.4-1,1.36,1.36,0,0,1,.7-1.3,3.14,3.14,0,0,1,2-.4v-.1c0-.6-.3-.9-1-.9a2.13,2.13,0,0,0-1.2.3L78.8,9a2.73,2.73,0,0,1,1.6-.4c1.2,0,1.8.6,1.8,1.9v1.7A6.82,6.82,0,0,1,82.3,13.4Zm-1.1-1.6v-.7c-1.2,0-1.7.3-1.7.9a1.42,1.42,0,0,0,.2.6.76.76,0,0,0,.5.2,1.42,1.42,0,0,0,.6-.2.92.92,0,0,0,.4-.6Z"/><path class="cls-2" d="M88.3,13.4h-.9v-.8h0a1.55,1.55,0,0,1-1.5.9,1.62,1.62,0,0,1-1.4-.7,2.52,2.52,0,0,1-.6-1.7,2.88,2.88,0,0,1,.6-1.9A2.13,2.13,0,0,1,86,8.5a1.38,1.38,0,0,1,1.3.6h0V6.6h1v5.6A4.82,4.82,0,0,0,88.3,13.4Zm-1.1-2V10.3a.92.92,0,0,0-.4-.6.91.91,0,0,0-.7-.3,1.05,1.05,0,0,0-.9.5,2.13,2.13,0,0,0-.3,1.2,1.8,1.8,0,0,0,.3,1.1,1.05,1.05,0,0,0,.9.5.91.91,0,0,0,.8-.4A1.22,1.22,0,0,0,87.2,11.4Z"/><path class="cls-2" d="M97.2,11a2.79,2.79,0,0,1-.6,1.8,2.06,2.06,0,0,1-1.7.7,2.19,2.19,0,0,1-1.7-.7,2.52,2.52,0,0,1-.6-1.7,2.79,2.79,0,0,1,.6-1.8,2.06,2.06,0,0,1,1.7-.7,2.19,2.19,0,0,1,1.7.7A2.52,2.52,0,0,1,97.2,11Zm-1,.1a2,2,0,0,0-.3-1.1,1,1,0,0,0-.9-.6,1.22,1.22,0,0,0-1,.6,2.17,2.17,0,0,0,0,2.2,1,1,0,0,0,1,.6,1,1,0,0,0,.9-.6A2,2,0,0,0,96.2,11.1Z"/><path class="cls-2" d="M102.9,13.4h-1V10.7c0-.8-.3-1.2-1-1.2a1,1,0,0,0-1.1,1.1v2.8h-1V8.7h.9v.7h0a2.65,2.65,0,0,1,.5-.6,1.69,1.69,0,0,1,1-.3,1.5,1.5,0,0,1,1.1.4,1.94,1.94,0,0,1,.5,1.6v2.9Z"/><path class="cls-2" d="M109.9,9.5h-1.2v2.3q0,.9.6.9h.5v.8a2,2,0,0,1-.8.1,1.28,1.28,0,0,1-1-.4,2.27,2.27,0,0,1-.3-1.3V9.5H107V8.7h.7V7.9l1-.3V8.8h1.2v.7Z"/><path class="cls-2" d="M115.5,13.4h-1V10.7c0-.8-.3-1.3-.9-1.3a1,1,0,0,0-1,.7v3.2h-1V6.6h1V9.4h0a1.6,1.6,0,0,1,1.4-.8,1.5,1.5,0,0,1,1.1.4,2.07,2.07,0,0,1,.5,1.6A26.2,26.2,0,0,0,115.5,13.4Z"/><path class="cls-2" d="M121.2,10.9v.5H118a1.43,1.43,0,0,0,.5,1.1,1.69,1.69,0,0,0,1,.3,5.07,5.07,0,0,0,1.3-.2l.2.7a3.81,3.81,0,0,1-1.6.3,2.35,2.35,0,0,1-1.7-.6,2.35,2.35,0,0,1-.6-1.7,2.79,2.79,0,0,1,.6-1.8,2.09,2.09,0,0,1,1.6-.8,1.65,1.65,0,0,1,1.5.8A2,2,0,0,1,121.2,10.9Zm-1-.3a1.88,1.88,0,0,0-.2-.8,1,1,0,0,0-1.6,0,1.14,1.14,0,0,0-.3.8Z"/></g></g></svg>