<svg xmlns="http://www.w3.org/2000/svg" viewBox="0 0 32 32"><defs><style>.cls-1{fill:#f05324;}.cls-2{fill:#fff;}</style></defs><title>Asset 7</title><g id="Layer_2" data-name="Layer 2"><g id="Layer_1-2" data-name="Layer 1"><path class="cls-1" d="M32,30a2,2,0,0,1-2,2H2a2,2,0,0,1-2-2V2A2,2,0,0,1,2,0H30a2,2,0,0,1,2,2Z"/><path class="cls-2" d="M26,18c0-3-1-4-4-4V11c0-3-3-5-5-5H12a5.78,5.78,0,0,0-6,6v8a5.78,5.78,0,0,0,6,6h8a5.78,5.78,0,0,0,6-6ZM12.5,11h4a1.5,1.5,0,0,1,0,3h-4a1.5,1.5,0,0,1,0-3Zm7,10h-7a1.5,1.5,0,0,1,0-3h7a1.5,1.5,0,0,1,0,3Z"/></g></g></svg>