<svg xmlns="http://www.w3.org/2000/svg" viewBox="0 0 128 128"><defs><style>.cls-1{fill:#3c579e;}.cls-2{fill:#fff;}</style></defs><title>Asset 4</title><g id="Layer_2" data-name="Layer 2"><g id="Layer_1-2" data-name="Layer 1"><path class="cls-1" d="M128,112a16,16,0,0,1-16,16H16A16,16,0,0,1,0,112V16A16,16,0,0,1,16,0h96a16,16,0,0,1,16,16Z"/><path class="cls-2" d="M68.9,128V78.2H51.1V60.4H68.9V44c0-16.5,9.8-26.3,24.5-26.3a117.93,117.93,0,0,1,14.6,1V37.3H96.1c-8,0-9.5,4-9.5,9.6V60.4h20.6l-2.9,17.8H86.6V128Z"/></g></g></svg>