<svg xmlns="http://www.w3.org/2000/svg" xmlns:xlink="http://www.w3.org/1999/xlink" viewBox="0 0 135 40"><defs><style>.cls-1{fill:#a6a5a5;}.cls-10,.cls-2,.cls-3{fill:#fff;}.cls-2{stroke:#fff;stroke-miterlimit:10;stroke-width:0.2px;}.cls-4{fill:url(#linear-gradient);}.cls-5{fill:url(#linear-gradient-2);}.cls-6{fill:url(#linear-gradient-3);}.cls-7{fill:url(#linear-gradient-4);}.cls-8{opacity:0.2;}.cls-10,.cls-8,.cls-9{isolation:isolate;}.cls-9{opacity:0.12;}.cls-10{opacity:0.25;}</style><linearGradient id="linear-gradient" x1="145.24" y1="301.84" x2="128.46" y2="318.63" gradientTransform="translate(-123.44 -293.14)" gradientUnits="userSpaceOnUse"><stop offset="0" stop-color="#4997d2"/><stop offset="0.01" stop-color="#4898d3"/><stop offset="0.26" stop-color="#41b9eb"/><stop offset="0.51" stop-color="#3fc6f1"/><stop offset="0.76" stop-color="#54c8e9"/><stop offset="1" stop-color="#5bc9e8"/></linearGradient><linearGradient id="linear-gradient-2" x1="157.28" y1="313.19" x2="133.08" y2="313.19" gradientTransform="translate(-123.44 -293.14)" gradientUnits="userSpaceOnUse"><stop offset="0" stop-color="#fee000"/><stop offset="0.41" stop-color="#febd11"/><stop offset="0.78" stop-color="#faa41a"/><stop offset="1" stop-color="#f99b1c"/></linearGradient><linearGradient id="linear-gradient-3" x1="148.26" y1="315.42" x2="125.5" y2="338.18" gradientTransform="translate(-123.44 -293.14)" gradientUnits="userSpaceOnUse"><stop offset="0" stop-color="#ef3f49"/><stop offset="1" stop-color="#c31e63"/></linearGradient><linearGradient id="linear-gradient-4" x1="130.71" y1="293.35" x2="140.87" y2="303.51" gradientTransform="translate(-123.44 -293.14)" gradientUnits="userSpaceOnUse"><stop offset="0" stop-color="#30a072"/><stop offset="0.07" stop-color="#2ba771"/><stop offset="0.48" stop-color="#4bb970"/><stop offset="0.8" stop-color="#5dbc6a"/><stop offset="1" stop-color="#65be68"/></linearGradient></defs><title>Asset 1</title><g id="Layer_2" data-name="Layer 2"><g id="Layer_1-2" data-name="Layer 1"><path d="M130,40H5a5,5,0,0,1-5-5V5A5,5,0,0,1,5,0H130a5,5,0,0,1,5,5V35A5,5,0,0,1,130,40Z"/><path class="cls-1" d="M130,.8A4.23,4.23,0,0,1,134.2,5V35a4.23,4.23,0,0,1-4.2,4.2H5A4.23,4.23,0,0,1,.8,35V5A4.23,4.23,0,0,1,5,.8H130m0-.8H5A5.08,5.08,0,0,0,0,5V35a5,5,0,0,0,5,5H130a5,5,0,0,0,5-5V5a5,5,0,0,0-5-5Z"/><path class="cls-2" d="M47.4,10.2a2.72,2.72,0,0,1-.7,2A3.1,3.1,0,0,1,41.4,10a3.07,3.07,0,0,1,3.1-3.1,2.66,2.66,0,0,1,1.2.3,2.18,2.18,0,0,1,.9.7l-.5.5a1.86,1.86,0,0,0-1.6-.7,2,2,0,0,0-1.6.7,2.06,2.06,0,0,0-.7,1.7,2.06,2.06,0,0,0,.7,1.7,2.57,2.57,0,0,0,1.6.7,2.19,2.19,0,0,0,1.7-.7,1.66,1.66,0,0,0,.5-1.2H44.5V9.8h2.9Z"/><path class="cls-2" d="M52,7.7H49.3V9.6h2.5v.7H49.3v1.9H52V13H48.5V7H52Z"/><path class="cls-2" d="M55.3,13h-.8V7.7H52.8V7H57v.7H55.3Z"/><path class="cls-2" d="M59.9,13V7h.8v6Z"/><path class="cls-2" d="M64.1,13h-.8V7.7H61.6V7h4.1v.7H64V13Z"/><path class="cls-2" d="M73.6,12.2A3.1,3.1,0,0,1,68.3,10a3.1,3.1,0,1,1,6.2,0A2.94,2.94,0,0,1,73.6,12.2Zm-3.8-.5a2.36,2.36,0,0,0,1.6.7,2,2,0,0,0,1.6-.7,2.41,2.41,0,0,0,.7-1.7A2.06,2.06,0,0,0,73,8.3a2.36,2.36,0,0,0-1.6-.7,2,2,0,0,0-1.6.7,2.41,2.41,0,0,0-.7,1.7A2.06,2.06,0,0,0,69.8,11.7Z"/><path class="cls-2" d="M75.6,13V7h.9l2.9,4.7h0V7h.8v6h-.8L76.3,8.1h0V13Z"/><path class="cls-3" d="M68.1,21.8a4.21,4.21,0,0,0-4.3,4.3,4.27,4.27,0,0,0,4.3,4.3,4.21,4.21,0,0,0,4.3-4.3A4.15,4.15,0,0,0,68.1,21.8Zm0,6.8a2.61,2.61,0,0,1,0-5.2A2.42,2.42,0,0,1,70.5,26,2.48,2.48,0,0,1,68.1,28.6Zm-9.3-6.8a4.21,4.21,0,0,0-4.3,4.3,4.27,4.27,0,0,0,4.3,4.3,4.21,4.21,0,0,0,4.3-4.3A4.15,4.15,0,0,0,58.8,21.8Zm0,6.8a2.61,2.61,0,0,1,0-5.2A2.42,2.42,0,0,1,61.2,26,2.48,2.48,0,0,1,58.8,28.6ZM47.7,23.1v1.8H52a3.78,3.78,0,0,1-1,2.3,4.43,4.43,0,0,1-3.3,1.3A4.66,4.66,0,0,1,43,23.7a4.72,4.72,0,0,1,4.7-4.8A5,5,0,0,1,51,20.2l1.3-1.3a6.41,6.41,0,0,0-4.5-1.8,6.75,6.75,0,0,0-6.7,6.6,6.75,6.75,0,0,0,6.7,6.6,5.75,5.75,0,0,0,4.6-1.9A6,6,0,0,0,54,24.2a3.75,3.75,0,0,0-.1-1.1Zm45.4,1.4a3.89,3.89,0,0,0-3.6-2.7,4,4,0,0,0-4,4.3,4.18,4.18,0,0,0,4.2,4.3,4.1,4.1,0,0,0,3.5-1.9l-1.4-1a2.44,2.44,0,0,1-2.1,1.2,2.17,2.17,0,0,1-2.1-1.3L93.3,25Zm-5.8,1.4a2.43,2.43,0,0,1,2.2-2.5,1.77,1.77,0,0,1,1.6.9ZM82.6,30h1.9V17.5H82.6Zm-3-7.3h0a3.29,3.29,0,0,0-2.3-1A4.3,4.3,0,0,0,73.2,26a4.14,4.14,0,0,0,4.1,4.2,2.87,2.87,0,0,0,2.2-1h.1v.6a2.27,2.27,0,0,1-4.4,1l-1.6.7A4.13,4.13,0,0,0,77.4,34c2.2,0,4-1.3,4-4.4V22H79.6Zm-2.2,5.9a2.61,2.61,0,0,1,0-5.2A2.41,2.41,0,0,1,79.7,26,2.41,2.41,0,0,1,77.4,28.6Zm24.4-11.1H97.3V30h1.9V25.3h2.6a3.9,3.9,0,1,0,0-7.8Zm.1,6H99.2V19.2h2.7a2.2,2.2,0,0,1,2.2,2.1A2.29,2.29,0,0,1,101.9,23.5Zm11.5-1.8a3.36,3.36,0,0,0-3.3,1.9l1.7.7a1.77,1.77,0,0,1,1.7-.9,1.88,1.88,0,0,1,2,1.6v.1a4,4,0,0,0-1.9-.5c-1.8,0-3.6,1-3.6,2.8a2.93,2.93,0,0,0,3.1,2.8,2.81,2.81,0,0,0,2.4-1.2h.1v1h1.8V25.2A3.78,3.78,0,0,0,113.4,21.7Zm-.2,6.9c-.6,0-1.5-.3-1.5-1.1,0-1,1.1-1.3,2-1.3a3.87,3.87,0,0,1,1.7.4A2.33,2.33,0,0,1,113.2,28.6ZM123.7,22l-2.1,5.4h-.1L119.3,22h-2l3.3,7.6-1.9,4.2h1.9L125.7,22Zm-16.8,8h1.9V17.5h-1.9Z"/><path class="cls-4" d="M10.4,7.5A2,2,0,0,0,10,8.9V31a2,2,0,0,0,.5,1.4l.1.1L23,20.1v-.2L10.4,7.5Z"/><path class="cls-5" d="M27,24.3l-4.1-4.1v-.3L27,15.8l.1.1L32,18.7c1.4.8,1.4,2.1,0,2.9l-5,2.7Z"/><path class="cls-6" d="M27.1,24.2,22.9,20,10.4,32.5c.5.5,1.2.5,2.1.1l14.6-8.4"/><path class="cls-7" d="M27.1,15.8,12.5,7.5a1.62,1.62,0,0,0-2.1.1L22.9,20Z"/><path class="cls-8" d="M27,24.1,12.5,32.3a1.64,1.64,0,0,1-2,0h0l-.1.1h0l.1.1h0a1.64,1.64,0,0,0,2,0L27,24.1Z"/><path class="cls-9" d="M10.4,32.3a2,2,0,0,1-.4-1.4V31a2,2,0,0,0,.5,1.4v-.1Z"/><path class="cls-9" d="M32,21.3l-5,2.8.1.1L32,21.4A1.66,1.66,0,0,0,33,20h0C33,20.5,32.6,20.9,32,21.3Z"/><path class="cls-10" d="M12.5,7.6,32,18.7c.6.4,1,.8,1,1.3h0a1.66,1.66,0,0,0-1-1.4L12.5,7.5C11.1,6.7,10,7.3,10,8.9V9C10,7.5,11.1,6.8,12.5,7.6Z"/></g></g></svg>