<svg xmlns="http://www.w3.org/2000/svg" xmlns:xlink="http://www.w3.org/1999/xlink" viewBox="0 0 128 128"><defs><style>.cls-1{fill:url(#linear-gradient);}.cls-2{fill:#fff;}</style><linearGradient id="linear-gradient" x1="-454.07" y1="-281.72" x2="-359.04" y2="-146.01" gradientTransform="matrix(1, 0, 0, -1, 470.56, -149.86)" gradientUnits="userSpaceOnUse"><stop offset="0" stop-color="#fdb813"/><stop offset="1" stop-color="#784d9f"/></linearGradient></defs><title>Asset 5</title><g id="Layer_2" data-name="Layer 2"><g id="Layer_1-2" data-name="Layer 1"><path class="cls-1" d="M128,112a16,16,0,0,1-16,16H16A16,16,0,0,1,0,112V16A16,16,0,0,1,16,0h96a16,16,0,0,1,16,16Z"/><path class="cls-2" d="M86,112H42A26.08,26.08,0,0,1,16,86V42A26.08,26.08,0,0,1,42,16H86a26.08,26.08,0,0,1,26,26V86A26.08,26.08,0,0,1,86,112ZM42,24A18.05,18.05,0,0,0,24,42V86a18.05,18.05,0,0,0,18,18H86a18.05,18.05,0,0,0,18-18V42A18.05,18.05,0,0,0,86,24Z"/><path class="cls-2" d="M64,88A24,24,0,1,1,88,64,24.07,24.07,0,0,1,64,88Zm0-40A16,16,0,1,0,80,64,16,16,0,0,0,64,48Z"/><circle class="cls-2" cx="89.5" cy="38.5" r="5.5"/></g></g></svg>